# xmcd CD database file
#
# Track frame offsets:
#	165
#	12078
#	29136
#	49784
#	76520
#	96355
#	114265
#	131362
#	152368
#	168543
#	188601
#
# Disc length: 2811 seconds
#
# Revision: 0
# Processed by: cddbd v1.5PL3 Copyright (c) Steve Scherf et al.
# Submitted via: CDex 1.51
#
DISCID=780af90b
DTITLE=7 O'Clock Shadow - Onomatopoeia
DYEAR=2001
DGENRE=Pop
TTITLE0=Great Controversy
TTITLE1=ONE-102
TTITLE2=Microdiver (Album Edit)
TTITLE3=Acid Tanker No.9
TTITLE4=Undone
TTITLE5=Argument
TTITLE6=Cadence
TTITLE7=Ping Pong
TTITLE8=Brownstudy (Another Mix)
TTITLE9=Mild Obsession
TTITLE10=Mental League'00-'01
EXTD=YEAR: 2001
EXTT0=
EXTT1=
EXTT2=
EXTT3=
EXTT4=
EXTT5=
EXTT6=
EXTT7=
EXTT8=
EXTT9=
EXTT10=
PLAYORDER=
